<svg xmlns="http://www.w3.org/2000/svg" viewBox="0 0 512 512">
<defs>
  <linearGradient id="mark" x1="0" y1="131" x2="0" y2="381" gradientUnits="userSpaceOnUse">
    <stop offset="0" stop-color="#c9bcff"/>
    <stop offset="1" stop-color="#ffb066"/>
  </linearGradient>
  <radialGradient id="bg" cx="0.5" cy="0.42" r="0.75">
    <stop offset="0" stop-color="#221a44"/>
    <stop offset="0.6" stop-color="#10101f"/>
    <stop offset="1" stop-color="#08080f"/>
  </radialGradient>
  <radialGradient id="glow" cx="0.5" cy="0.5" r="0.5">
    <stop offset="0" stop-color="#9d8fff" stop-opacity="0.35"/>
    <stop offset="1" stop-color="#9d8fff" stop-opacity="0"/>
  </radialGradient>
</defs>

<g transform="translate(97.28,131.04) scale(0.77614)">
<g transform="translate(0.000000,322.000000) scale(0.100000,-0.100000)"
fill="url(#mark)" stroke="none">
<path d="M1246 2810 c-57 -17 -156 -162 -156 -229 0 -9 -11 -40 -25 -69 -14
-30 -25 -61 -25 -70 0 -10 -11 -39 -25 -67 -13 -27 -25 -56 -25 -64 0 -8 -9
-33 -19 -55 -21 -44 -51 -125 -81 -221 -49 -153 -63 -193 -81 -233 -10 -23
-19 -48 -19 -55 0 -6 -11 -34 -25 -62 -13 -27 -25 -56 -25 -63 0 -7 -11 -35
-25 -62 -14 -27 -25 -55 -25 -61 0 -7 -11 -36 -25 -66 -14 -29 -36 -77 -50
-106 -14 -30 -25 -58 -25 -63 0 -5 -12 -34 -26 -64 -14 -30 -37 -78 -50 -106
-13 -28 -24 -57 -24 -65 0 -8 -10 -34 -21 -59 -30 -66 -77 -436 -58 -456 9 -9
50 -16 115 -20 114 -8 134 1 134 59 1 70 38 314 53 342 8 17 20 49 26 73 22
80 64 98 117 51 11 -11 26 -19 33 -19 7 0 34 -11 60 -24 86 -45 277 -136 285
-136 4 0 19 -9 33 -20 14 -11 33 -20 41 -20 8 0 40 -12 71 -26 31 -15 83 -39
116 -54 33 -15 92 -43 130 -62 39 -20 86 -43 105 -52 19 -10 42 -22 50 -27 8
-5 33 -18 55 -30 22 -11 63 -33 90 -49 228 -130 317 -135 375 -19 31 59 10
181 -42 248 -10 13 -18 30 -18 37 0 8 -11 35 -24 61 -41 82 -65 136 -82 183
-9 25 -25 70 -36 100 -10 30 -28 73 -39 96 -10 22 -19 47 -19 56 0 9 -11 40
-25 70 -14 29 -25 60 -25 68 0 8 -12 38 -25 65 -14 28 -25 58 -25 68 0 11 -7
31 -16 47 -20 33 -13 57 18 69 13 5 48 25 78 45 30 20 64 35 75 34 23 -3 95
-126 95 -162 0 -7 8 -24 19 -37 10 -13 21 -35 25 -49 4 -14 17 -47 30 -75 65
-138 76 -163 76 -174 0 -7 11 -33 25 -59 14 -26 25 -54 25 -62 0 -8 11 -37 25
-65 13 -27 25 -57 25 -67 0 -9 11 -40 25 -70 14 -29 25 -64 25 -78 0 -43 65
-127 115 -150 l45 -20 47 24 c49 25 93 78 93 111 0 11 11 67 25 125 14 58 32
133 40 167 28 122 66 171 81 106 4 -16 15 -44 24 -63 10 -19 46 -92 80 -162
62 -129 94 -169 162 -204 91 -47 223 61 243 199 3 27 13 66 20 87 8 22 19 83
25 137 6 54 19 127 30 163 10 36 23 85 29 110 5 25 17 72 25 105 22 87 54 311
66 460 6 72 19 167 29 213 24 112 30 108 -190 149 -15 3 -30 -1 -38 -10 -16
-20 -51 -189 -51 -252 0 -27 -7 -97 -15 -155 -8 -58 -22 -161 -30 -229 -9 -68
-22 -139 -30 -158 -8 -18 -19 -62 -25 -96 -6 -34 -17 -78 -24 -97 -7 -19 -17
-62 -20 -95 -11 -97 -34 -129 -52 -72 -8 26 -50 123 -67 152 -6 11 -22 42 -35
69 -91 187 -261 217 -373 66 -25 -34 -32 -54 -68 -190 -19 -71 -52 -93 -59
-40 -3 24 -33 101 -72 185 -68 146 -80 175 -80 184 0 9 -28 68 -62 131 -4 8
-17 33 -29 55 -91 168 -231 216 -382 129 -123 -71 -129 -74 -148 -64 -10 6
-22 31 -28 60 -6 28 -17 63 -25 78 -8 15 -17 46 -21 67 -4 22 -16 59 -26 82
-11 23 -24 65 -30 92 -6 28 -15 53 -20 56 -4 3 -13 25 -19 48 -6 23 -21 65
-34 92 -14 28 -29 61 -36 75 -96 213 -205 298 -334 260z m108 -392 c9 -12 23
-45 32 -73 9 -27 21 -56 27 -63 5 -7 18 -40 28 -75 20 -71 42 -142 65 -207 9
-25 22 -70 30 -101 7 -31 21 -69 29 -85 16 -31 -5 -64 -41 -64 -7 0 -34 -11
-60 -25 -26 -14 -53 -25 -61 -25 -8 0 -35 -11 -61 -25 -26 -14 -54 -25 -63
-25 -9 0 -28 -9 -42 -20 -14 -11 -29 -20 -33 -20 -7 0 -109 -50 -173 -85 -48
-26 -55 15 -16 89 14 26 25 55 25 64 0 9 11 40 24 67 12 28 26 68 30 90 4 21
16 55 25 75 10 19 21 52 25 74 4 21 16 55 27 75 10 20 19 43 19 52 0 9 11 37
25 63 14 26 25 55 25 65 0 10 11 39 25 65 14 26 25 56 25 66 0 61 36 88 64 48z
m339 -963 c11 -27 28 -75 39 -105 11 -30 28 -73 39 -96 10 -22 19 -47 19 -55
0 -8 9 -33 20 -54 12 -22 25 -56 29 -75 11 -44 45 -130 78 -196 14 -28 23 -56
19 -63 -10 -16 -51 -14 -66 4 -7 8 -51 33 -99 55 -47 23 -93 45 -101 51 -8 5
-26 14 -40 20 -14 6 -48 22 -76 35 -28 13 -54 24 -58 24 -7 0 -120 51 -158 71
-29 15 -49 24 -118 57 -173 80 -181 85 -178 100 2 9 71 50 163 95 88 44 181
90 206 103 26 13 53 24 60 24 8 0 28 7 44 16 106 58 153 55 178 -11z"/>
</g>
</g>
</svg>